<svg width="229" height="100" viewBox="0 0 229 100" xmlns="http://www.w3.org/2000/svg"><rect x="0" y="0" width="229" height="100" fill="#00000000"/><path fill="rgba(0, 123, 92, 1)" d="M56.9 61.0L52.0 61.0L52.0 37.7L61.2 37.7Q63.9 37.7 65.7 38.7Q67.6 39.7 68.6 41.5Q69.5 43.2 69.5 45.6L69.5 45.6Q69.5 47.9 68.5 49.7Q67.5 51.4 65.7 52.4Q63.8 53.4 61.1 53.4L61.1 53.4L55.2 53.4L55.2 49.5L60.3 49.5Q61.7 49.5 62.6 49.0Q63.6 48.5 64.0 47.6Q64.5 46.7 64.5 45.6L64.5 45.6Q64.5 44.4 64.0 43.5Q63.6 42.7 62.6 42.2Q61.7 41.7 60.3 41.7L60.3 41.7L56.9 41.7L56.9 61.0ZM80.2 61.3L80.2 61.3Q77.6 61.3 75.7 60.2Q73.7 59.0 72.7 57.0Q71.7 55.0 71.7 52.3L71.7 52.3Q71.7 49.6 72.7 47.6Q73.7 45.5 75.7 44.4Q77.6 43.3 80.2 43.3L80.2 43.3Q82.9 43.3 84.8 44.4Q86.8 45.5 87.8 47.6Q88.8 49.6 88.8 52.3L88.8 52.3Q88.8 55.0 87.8 57.0Q86.8 59.0 84.8 60.2Q82.9 61.3 80.2 61.3ZM80.3 57.5L80.3 57.5Q81.5 57.5 82.3 56.9Q83.1 56.2 83.5 55.0Q83.9 53.8 83.9 52.3L83.9 52.3Q83.9 50.7 83.5 49.5Q83.1 48.3 82.3 47.7Q81.5 47.0 80.3 47.0L80.3 47.0Q79.1 47.0 78.2 47.7Q77.4 48.3 77.0 49.5Q76.6 50.7 76.6 52.3L76.6 52.3Q76.6 53.8 77.0 55.0Q77.4 56.2 78.2 56.9Q79.1 57.5 80.3 57.5ZM92 37.7L96.8 37.7L96.8 61.0L92 61.0L92 37.7ZM105.7 61.3L105.7 61.3Q104.0 61.3 102.7 60.7Q101.4 60.1 100.6 59.0Q99.9 57.8 99.9 56.1L99.9 56.1Q99.9 54.6 100.4 53.6Q101.0 52.6 101.9 52.0Q102.8 51.4 104.0 51.1Q105.1 50.8 106.4 50.7L106.4 50.7Q108.0 50.5 108.9 50.4Q109.8 50.3 110.3 50.0Q110.7 49.7 110.7 49.1L110.7 49.1L110.7 49.1Q110.7 48.0 110.0 47.4Q109.3 46.8 108.1 46.8L108.1 46.8Q106.8 46.8 106 47.4Q105.2 48.0 105.0 48.8L105.0 48.8L100.5 48.5Q100.8 46.9 101.8 45.7Q102.8 44.5 104.4 43.9Q106.0 43.3 108.1 43.3L108.1 43.3Q109.6 43.3 110.9 43.6Q112.2 44.0 113.3 44.7Q114.3 45.4 114.9 46.5Q115.5 47.6 115.5 49.2L115.5 49.2L115.5 61.0L110.9 61.0L110.9 58.5L110.8 58.5Q110.4 59.3 109.7 60.0Q109.0 60.6 108.0 60.9Q107.0 61.3 105.7 61.3ZM107.1 57.9L107.1 57.9Q108.1 57.9 109.0 57.5Q109.8 57.1 110.2 56.4Q110.7 55.6 110.7 54.7L110.7 54.7L110.7 52.9Q110.5 53.0 110.1 53.1Q109.7 53.2 109.2 53.3Q108.7 53.4 108.2 53.5Q107.7 53.6 107.3 53.6L107.3 53.6Q106.5 53.8 105.9 54.0Q105.2 54.3 104.9 54.8Q104.5 55.2 104.5 55.9L104.5 55.9Q104.5 56.9 105.2 57.4Q106.0 57.9 107.1 57.9ZM124.1 61.0L119.3 61.0L119.3 43.5L124.0 43.5L124.0 46.5L124.1 46.5Q124.6 44.9 125.8 44.1Q126.9 43.2 128.3 43.2L128.3 43.2Q128.7 43.2 129.1 43.3Q129.5 43.3 129.9 43.4L129.9 43.4L129.9 47.7Q129.5 47.6 128.9 47.5Q128.3 47.5 127.8 47.5L127.8 47.5Q126.8 47.5 125.9 47.9Q125.1 48.4 124.6 49.2Q124.1 50.0 124.1 51.1L124.1 51.1L124.1 61.0ZM137.2 61.0L132.4 61.0L132.4 43.5L137.2 43.5L137.2 61.0ZM134.8 41.2L134.8 41.2Q133.7 41.2 132.9 40.5Q132.2 39.8 132.2 38.8L132.2 38.8Q132.2 37.8 132.9 37.1Q133.7 36.3 134.8 36.3L134.8 36.3Q135.9 36.3 136.6 37.1Q137.4 37.8 137.4 38.8L137.4 38.8Q137.4 39.8 136.6 40.5Q135.9 41.2 134.8 41.2ZM155.6 48.5L155.6 48.5L151.1 48.7Q151.0 48.2 150.7 47.7Q150.3 47.3 149.7 47.0Q149.1 46.7 148.2 46.7L148.2 46.7Q147.1 46.7 146.3 47.2Q145.6 47.6 145.6 48.4L145.6 48.4Q145.6 49.1 146.1 49.5Q146.6 49.9 147.8 50.2L147.8 50.2L150.9 50.8Q153.5 51.3 154.7 52.5Q156.0 53.7 156.0 55.5L156.0 55.5Q156.0 57.3 155.0 58.6Q154.0 59.8 152.2 60.6Q150.5 61.3 148.2 61.3L148.2 61.3Q144.7 61.3 142.7 59.8Q140.6 58.4 140.3 55.9L140.3 55.9L145.0 55.6Q145.3 56.7 146.1 57.3Q146.9 57.8 148.2 57.8L148.2 57.8Q149.5 57.8 150.3 57.3Q151.0 56.8 151.1 56.0L151.1 56.0Q151.0 55.4 150.5 54.9Q150.0 54.5 148.8 54.3L148.8 54.3L145.8 53.7Q143.2 53.2 142.0 51.9Q140.8 50.7 140.8 48.7L140.8 48.7Q140.8 47.0 141.7 45.8Q142.6 44.6 144.2 43.9Q145.9 43.3 148.1 43.3L148.1 43.3Q151.5 43.3 153.4 44.7Q155.3 46.1 155.6 48.5ZM163.3 54.7L159.5 54.7Q159.5 52.5 160.1 51.0Q160.7 49.5 161.8 48.8Q162.9 48.0 164.5 48.0L164.5 48.0Q165.5 48.0 166.5 48.4Q167.5 48.9 168.7 50.0L168.7 50.0Q169.4 50.6 169.8 50.9Q170.3 51.2 170.9 51.2L170.9 51.2Q171.7 51.2 172.2 50.5Q172.7 49.9 172.7 48.5L172.7 48.5L176.4 48.5Q176.5 50.7 175.9 52.2Q175.3 53.7 174.1 54.4Q173.0 55.2 171.5 55.2L171.5 55.2Q170.4 55.2 169.4 54.7Q168.4 54.3 167.2 53.2L167.2 53.2Q166.5 52.6 166.1 52.3Q165.7 52.0 165.1 52.0L165.1 52.0Q164.3 52.0 163.8 52.6Q163.2 53.2 163.3 54.7L163.3 54.7Z "/></svg>